<svg xmlns="http://www.w3.org/2000/svg" width="1em" height="1em" fill="currentColor" viewBox="0 0 1024 1024"><path d="M760.834 450.588H263.239c-9.198 0-17.67 4.997-22.16 13.036l-96.681 173.445c-2.1 3.766-3.187 8.038-3.187 12.383V857.37c0 14.05 11.37 25.42 25.42 25.42h690.81c14.05 0 25.42-11.37 25.42-25.42V649.452c0-4.345-1.086-8.545-3.186-12.383l-96.68-173.445c-4.49-8.039-12.964-13.036-22.161-13.036M628.885 644.962c-11.949 0-22.305 8.329-24.84 20.06-9.197 42.366-46.928 74.086-92.117 74.086s-82.92-31.72-92.118-74.085c-2.535-11.66-12.89-20.06-24.84-20.06H227.39c-19.118 0-31.357-20.278-22.522-37.224l59.167-112.83c4.418-8.4 13.036-13.615 22.523-13.615h450.74a25.45 25.45 0 0 1 22.522 13.615l59.167 112.83c8.835 16.946-3.404 37.223-22.523 37.223zM734.98 292.931a113 113 0 0 0-2.317-3.984c-7.097-12.021-22.523-16.077-34.617-9.124l-87.193 50.404c-12.312 7.097-16.44 22.884-9.125 35.05.652 1.015 1.231 2.101 1.81 3.187 6.88 12.312 22.595 16.512 34.762 9.415l87.338-50.332c12.094-7.025 16.222-22.45 9.342-34.616m-321.905 37.368-87.193-50.332c-12.095-6.952-27.52-2.896-34.617 9.125-.797 1.304-1.52 2.607-2.318 3.983-6.88 12.167-2.751 27.592 9.343 34.617l87.193 50.332c12.239 7.024 27.954 2.896 34.761-9.487.58-1.087 1.231-2.1 1.81-3.187 7.388-12.166 3.26-27.954-8.98-35.05M512 314.512h1.81c14.122.217 25.71-11.225 25.71-25.42V188.43c0-13.977-11.298-25.274-25.203-25.42h-4.634c-13.905.146-25.202 11.515-25.202 25.42v100.663c0 14.122 11.514 25.637 25.709 25.42z"/></svg>