<svg xmlns="http://www.w3.org/2000/svg" width="1em" height="1em" fill="currentColor" viewBox="0 0 1024 1024"><path d="M504.747 73.813c-145.067 2.56-238.934 67.84-238.934 67.84-11.946 7.68-14.933 25.174-6.826 37.12 8.533 13.227 25.173 15.36 37.973 6.4 0 0 183.893-136.106 448 1.707 12.373 7.253 29.013 2.987 36.267-9.813 8.106-12.8 2.56-29.014-11.947-37.12C698.027 102.4 630.613 83.627 570.027 76.8c-22.614-2.56-44.374-3.413-65.28-2.987m16.64 111.36c-254.294-3.413-375.894 200.96-375.894 200.96-8.106 12.374-4.693 28.587 7.254 36.694 12.373 8.106 29.013 3.84 39.253-9.814 0 0 103.253-178.346 328.533-174.506 226.134 2.986 325.12 173.226 325.12 173.226 7.68 12.374 23.894 16.64 36.694 9.387 13.653-7.68 16.64-23.893 9.386-37.12 0 0-117.333-195.413-370.346-198.827m-30.72 105.814c-71.68 5.12-140.374 31.146-192 74.24-101.547 84.053-166.4 238.08-95.147 445.44 4.693 14.08 20.053 21.333 34.133 16.64 13.654-4.694 21.334-20.054 16.214-33.707-65.707-190.72-7.254-315.733 78.933-388.267C416.853 336.64 565.333 320 675.84 388.267c54.187 34.133 96.427 93.013 117.76 151.04 21.76 58.026 20.48 114.346 2.987 140.8-17.92 27.733-54.187 37.973-86.187 29.866s-58.027-31.146-59.307-79.786c-1.28-72.96-58.453-118.187-117.76-125.014-57.173-6.826-123.306 23.894-140.373 92.16-32.427 124.587 49.067 301.654 237.653 360.534 14.08 4.266 29.014-3.414 33.707-17.494 4.267-14.08-2.987-29.44-17.92-33.706-163.413-50.774-225.28-205.654-201.813-296.96 10.24-40.96 46.08-55.04 83.626-51.627 37.12 4.267 69.12 26.453 69.12 72.96 2.134 69.973 47.787 117.333 99.84 130.56s112.214-3.413 144.214-52.48c33.28-49.92 27.733-120.32 2.56-188.16-25.6-68.267-72.96-135.68-139.947-177.92a355.84 355.84 0 0 0-213.333-52.053m15.36 103.68v.426c-75.947 2.56-151.894 41.814-195.414 124.587-56.32 106.24-30.72 214.613 6.827 292.693 37.973 78.507 89.6 130.56 89.6 130.56 10.24 10.667 26.88 10.667 37.547.427s10.666-26.027.426-37.547c0 0-45.653-46.933-79.36-116.48s-54.186-157.44-8.106-244.48c47.786-89.6 133.12-111.36 208.213-89.6C641.707 477.44 705.28 543.573 704 641.28c-1.707 14.933 8.96 27.733 23.893 28.587 14.507 1.28 27.307-9.814 28.587-27.307 2.56-122.027-79.36-210.347-175.787-238.507a245.8 245.8 0 0 0-74.666-9.386M515.413 608c-14.933.427-26.453 12.8-26.026 27.307 0 0 1.28 63.146 35.84 124.16 35.84 61.013 111.786 119.04 244.053 106.666 14.507-.853 26.027-12.8 25.173-28.16-.853-14.933-13.653-26.026-30.293-24.746-116.053 10.666-165.12-33.28-192.853-80.64-27.734-46.934-28.587-97.707-28.587-97.707A26.88 26.88 0 0 0 515.413 608"/></svg>