<svg xmlns="http://www.w3.org/2000/svg" width="1em" height="1em" fill="currentColor" viewBox="0 0 1024 1024"><path d="M158.322 188.263v165.565h707.356V188.263zM284.85 307.01h-76.438v-71.885h76.438zm113.575 0h-76.439v-71.885h76.44zm113.62 0H435.56v-71.885H512v71.885zM158.321 429.24v165.565h707.356V429.239zM284.85 547.897h-76.438v-71.84h76.438zm113.575 0h-76.439v-71.84h76.44zm113.62 0H435.56v-71.84H512v71.84zM158.321 670.172v165.565h707.356V670.172zM284.85 788.875h-76.438V716.99h76.438zm113.575 0h-76.439V716.99h76.44zm113.62 0H435.56V716.99H512v71.885z"/></svg>