<svg xmlns="http://www.w3.org/2000/svg" width="1em" height="1em" fill="currentColor" viewBox="0 0 1152 1024"><path d="M888.701 789.138H195.856c-38.265 0-69.284-31.02-69.284-69.284V304.146c0-38.265 31.019-69.284 69.284-69.284h692.845c38.266 0 69.285 31.02 69.285 69.284v415.708c0 38.265-31.02 69.284-69.285 69.284M311.331 402.3v-57.738c0-9.565-7.756-17.32-17.322-17.32h-57.737c-9.565 0-17.32 7.755-17.32 17.32V402.3c0 9.565 7.755 17.32 17.32 17.32h57.737c9.566 0 17.321-7.755 17.321-17.32m138.568 0v-57.738c0-9.565-7.755-17.32-17.32-17.32H374.84c-9.565 0-17.32 7.755-17.32 17.32V402.3c0 9.565 7.755 17.32 17.32 17.32h57.737c9.566 0 17.321-7.755 17.321-17.32m138.57 0v-57.738c0-9.565-7.756-17.32-17.322-17.32H513.41c-9.565 0-17.32 7.755-17.32 17.32V402.3c0 9.565 7.755 17.32 17.32 17.32h57.737c9.566 0 17.321-7.755 17.321-17.32m138.569 0v-57.738c0-9.565-7.756-17.32-17.322-17.32H651.98c-9.565 0-17.32 7.755-17.32 17.32V402.3c0 9.565 7.755 17.32 17.32 17.32h57.737c9.566 0 17.322-7.755 17.322-17.32m138.569 0v-57.738c0-9.565-7.756-17.32-17.322-17.32h-57.737c-9.565 0-17.32 7.755-17.32 17.32V402.3c0 9.565 7.755 17.32 17.32 17.32h57.737c9.566 0 17.322-7.755 17.322-17.32M380.615 540.869V483.13c0-9.565-7.756-17.32-17.321-17.32h-57.737c-9.566 0-17.321 7.755-17.321 17.32v57.738c0 9.565 7.755 17.32 17.32 17.32h57.738c9.565 0 17.32-7.755 17.32-17.32m138.569 0V483.13c0-9.565-7.756-17.32-17.321-17.32h-57.737c-9.566 0-17.321 7.755-17.321 17.32v57.738c0 9.565 7.755 17.32 17.32 17.32h57.738c9.565 0 17.321-7.755 17.321-17.32m138.569 0V483.13c0-9.565-7.756-17.32-17.321-17.32h-57.737c-9.566 0-17.321 7.755-17.321 17.32v57.738c0 9.565 7.755 17.32 17.32 17.32h57.738c9.565 0 17.321-7.755 17.321-17.32m138.569 0V483.13c0-9.565-7.756-17.32-17.321-17.32h-57.737c-9.566 0-17.321 7.755-17.321 17.32v57.738c0 9.565 7.755 17.32 17.32 17.32H779c9.565 0 17.321-7.755 17.321-17.32M311.33 679.438V621.7c0-9.565-7.755-17.32-17.32-17.32h-57.738c-9.565 0-17.32 7.755-17.32 17.32v57.738c0 9.565 7.755 17.32 17.32 17.32h57.737c9.566 0 17.321-7.755 17.321-17.32m415.708 0V621.7c0-9.565-7.756-17.32-17.322-17.32H374.841c-9.565 0-17.32 7.755-17.32 17.32v57.738c0 9.565 7.755 17.32 17.32 17.32h334.875c9.566 0 17.322-7.755 17.322-17.32m138.569 0V621.7c0-9.565-7.756-17.32-17.322-17.32h-57.737c-9.565 0-17.32 7.755-17.32 17.32v57.738c0 9.565 7.755 17.32 17.32 17.32h57.737c9.566 0 17.322-7.755 17.322-17.32"/></svg>