<svg xmlns="http://www.w3.org/2000/svg" width="1em" height="1em" fill="currentColor" viewBox="0 0 1024 1024"><path d="M498.29 399.77c0-57.9 47.1-105 105-105s105 47.1 105 105-47.1 105-105 105-105-47.1-105-105m339.09-154.08c0-33-26.82-59.85-58.71-59.85h-.06c-1.02-.03-104.7-3.84-182.91-3.84-90.15 0-98.25 4.35-108 14.1L348.29 335.51l-178.8 178.8c-23.4 23.4-23.34 61.5.15 84.99l254.28 254.28c11.4 11.37 26.49 17.61 42.6 17.61 16.08 0 31.11-6.21 42.36-17.46l198.96-198.96 119.25-119.25c10.5-10.5 20.4-20.4 10.29-289.83"/></svg>