<svg xmlns="http://www.w3.org/2000/svg" width="1em" height="1em" fill="currentColor" viewBox="0 0 1024 1024"><path d="M732 382h-37.16v-74.28A185.8 185.8 0 0 0 509.2 122a185.8 185.8 0 0 0-185.72 185.72V382h-37.2A74.48 74.48 0 0 0 212 456.28v331.4A74.48 74.48 0 0 0 286.28 862H732a74.48 74.48 0 0 0 74.32-74.28V456.28A74.48 74.48 0 0 0 732 382M546.56 670.48a27.44 27.44 0 0 1-27.28 27.68A27.44 27.44 0 0 1 492 670.48v-110.8c0-15.32 12.2-27.68 27.28-27.68 7.48 0 14.32 3.12 19.24 8.12 4.96 5.04 8 11.96 8 19.6v110.76zM394 382v-74.28a115.2 115.2 0 0 1 115.16-115.16 115.2 115.2 0 0 1 115.12 115.12V382z"/></svg>