<svg xmlns="http://www.w3.org/2000/svg" width="1em" height="1em" fill="currentColor" viewBox="0 0 1024 1024"><path d="M252.692 448.173a73.24 73.24 0 0 0-37.044-10.261 74.088 74.088 0 1 0 0 148.176c13.558 0 26.116-3.927 37.044-10.298 22.041-12.817 37.044-36.452 37.044-63.79 0-27.376-15.003-51.01-37.044-63.827m296.352 0A73.24 73.24 0 0 0 512 437.912c-13.558 0-26.116 3.89-37.044 10.261-22.041 12.817-37.044 36.451-37.044 63.827 0 27.338 15.003 50.973 37.044 63.79 10.928 6.371 23.486 10.298 37.044 10.298s26.116-3.927 37.044-10.298c22.041-12.817 37.044-36.452 37.044-63.79 0-27.376-15.003-51.01-37.044-63.827m259.308-10.261c-13.558 0-26.116 3.927-37.044 10.261-22.041 12.854-37.044 36.489-37.044 63.827s15.003 50.973 37.044 63.827c10.928 6.334 23.486 10.261 37.044 10.261a74.088 74.088 0 1 0 0-148.176"/></svg>