<svg xmlns="http://www.w3.org/2000/svg" width="1em" height="1em" viewBox="0 0 1024 1024"><path fill="currentColor" d="M790.625 548.75c1.5-12 2.625-24 2.625-36.75s-1.125-24.75-2.625-36.75l79.125-61.875c7.125-5.625 9-15.75 4.5-24l-75-129.75a18.75 18.75 0 0 0-22.875-8.25L683 288.875c-19.5-15-40.5-27.375-63.375-36.75l-14.25-99.375A18.3 18.3 0 0 0 587 137H437c-9.375 0-17.25 6.75-18.375 15.75l-14.25 99.375C381.5 261.5 360.5 274.25 341 288.875l-93.375-37.5a21.2 21.2 0 0 0-6.75-1.125c-6.375 0-12.75 3.375-16.125 9.375l-75 129.75c-4.875 8.25-2.625 18.375 4.5 24l79.125 61.875c-1.5 12-2.625 24.375-2.625 36.75s1.125 24.75 2.625 36.75l-79.125 61.875c-7.125 5.625-9 15.75-4.5 24l75 129.75a18.75 18.75 0 0 0 22.875 8.25l93.375-37.5c19.5 15 40.5 27.375 63.375 36.75l14.25 99.375c1.125 9 9 15.75 18.375 15.75h150c9.375 0 17.25-6.75 18.375-15.75l14.25-99.375C642.5 762.5 663.5 749.75 683 735.125l93.375 37.5q3.375 1.125 6.75 1.125c6.375 0 12.75-3.375 16.125-9.375l75-129.75c4.5-8.25 2.625-18.375-4.5-24zm-74.25-64.125c1.5 11.625 1.875 19.5 1.875 27.375s-.75 16.125-1.875 27.375l-5.25 42.375L744.5 608l40.5 31.5-26.25 45.375-47.625-19.125-39-15.75-33.75 25.5c-16.125 12-31.5 21-46.875 27.375L551.75 719l-6 42.375-7.5 50.625h-52.5l-7.125-50.625-6-42.375-39.75-16.125c-16.125-6.75-31.125-15.375-46.125-26.625L352.625 650l-39.75 16.125-47.625 19.125L239 639.875l40.5-31.5 33.375-26.25-5.25-42.375c-1.125-11.625-1.875-20.25-1.875-27.75s.75-16.125 1.875-27.375l5.25-42.375L279.5 416 239 384.5l26.25-45.375 47.625 19.125 39 15.75 33.75-25.5c16.125-12 31.5-21 46.875-27.375L472.25 305l6-42.375 7.5-50.625h52.125L545 262.625 551 305l39.75 16.125c16.125 6.75 31.125 15.375 46.125 26.625L671 374l39.75-16.125 47.625-19.125 26.25 45.375L744.5 416l-33.375 26.25zM512 362c-82.875 0-150 67.125-150 150s67.125 150 150 150 150-67.125 150-150-67.125-150-150-150m0 225c-41.25 0-75-33.75-75-75s33.75-75 75-75 75 33.75 75 75-33.75 75-75 75"/></svg>