<svg xmlns="http://www.w3.org/2000/svg" width="1em" height="1em" viewBox="0 0 1088 1024"><path fill="currentColor" d="M320.803 574.27V448.34a31.26 31.26 0 0 0-30.928-31.494H165.88a31.26 31.26 0 0 0-30.975 31.494v125.93a31.21 31.21 0 0 0 30.975 31.448h123.995a31.164 31.164 0 0 0 30.928-31.447m335.39 157.379v125.93a31.02 31.02 0 0 0 30.503 31.448h122.011c16.763 0 30.503-14.071 30.503-31.448V731.65c0-17.377-13.693-31.495-30.503-31.495H686.696a31.02 31.02 0 0 0-30.503 31.495m0-283.309v125.93a31.02 31.02 0 0 0 30.503 31.448h122.011c16.763 0 30.503-14.07 30.503-31.447V448.34c0-17.377-13.693-31.495-30.503-31.495H686.696a31.02 31.02 0 0 0-30.503 31.494m0-283.308v125.93a31.02 31.02 0 0 0 30.503 31.448h122.011c16.763 0 30.503-14.071 30.503-31.448v-125.93c0-17.377-13.693-31.495-30.503-31.495H686.696a31.02 31.02 0 0 0-30.503 31.495m-100.291 584.56V557.036h46.273v-91.508h-46.273v-192.32h46.273v-91.461H464.912v283.78h-95.144v91.51h95.144v282.788h137.263v-90.233z"/></svg>