<svg xmlns="http://www.w3.org/2000/svg" width="1em" height="1em" viewBox="0 0 1024 1024"><path fill="currentColor" d="M839.926 473.538c-15.437 0-27.909 12.472-27.909 27.91v262.95c0 12.56-9.157 22.763-20.408 22.763H199.25c-11.25 0-20.408-10.204-20.408-22.763V270.33c0-12.559 9.158-22.763 20.408-22.763h337.607c15.437 0 27.909-12.472 27.909-27.909s-12.472-27.908-27.909-27.908H199.25c-42.037 0-76.225 35.234-76.225 78.58V764.4c0 43.345 34.188 78.58 76.225 78.58h592.273c42.037 0 76.225-35.235 76.225-78.58V501.446c.088-15.437-12.384-27.909-27.821-27.909"/><path fill="currentColor" d="M900.366 226.547c.087-.174.087-.436.174-.61.087-.262.087-.523.174-.785 0-.175.088-.436.088-.61 0-.262.087-.524.087-.786 0-.174.087-.436.087-.61 0-.262 0-.523.087-.785v-3.401c0-.262 0-.436-.087-.698 0-.262 0-.436-.087-.698 0-.261-.087-.436-.087-.697 0-.262-.088-.437-.088-.698 0-.175-.087-.436-.087-.61 0-.262-.087-.437-.174-.698 0-.175-.087-.436-.175-.61-.087-.263-.087-.437-.174-.699-.087-.174-.087-.436-.174-.61-.088-.262-.175-.436-.175-.698-.087-.174-.087-.349-.174-.61-.088-.262-.175-.436-.262-.698a4 4 0 0 1-.262-.61c-.087-.262-.174-.437-.261-.698a4 4 0 0 1-.262-.61c-.087-.175-.174-.437-.262-.611a4 4 0 0 1-.261-.61c-.087-.175-.175-.437-.349-.611-.087-.175-.174-.35-.349-.61-.087-.175-.262-.35-.349-.611-.087-.175-.261-.35-.349-.61-.087-.175-.261-.35-.348-.524-.088-.174-.262-.349-.437-.61-.087-.175-.261-.35-.348-.524-.175-.174-.262-.349-.436-.523-.088-.175-.262-.349-.35-.523-.174-.175-.348-.35-.435-.524-.175-.174-.262-.349-.436-.436l-.524-.523-.436-.436-.523-.523c-.175-.175-.349-.262-.436-.436-.175-.175-.349-.35-.523-.437-.175-.174-.35-.261-.524-.436-.174-.174-.349-.261-.523-.436-.174-.174-.349-.261-.523-.436-.175-.174-.35-.261-.524-.436-.174-.174-.348-.261-.61-.436-.175-.087-.349-.262-.523-.349s-.436-.261-.61-.349c-.175-.087-.35-.261-.524-.348-.175-.088-.436-.262-.698-.35l-.523-.261c-.262-.087-.436-.262-.698-.349l-.523-.261c-.262-.088-.523-.175-.698-.35a4 4 0 0 0-.61-.261l-.785-.262c-.175-.087-.436-.174-.61-.174-.262-.087-.524-.174-.699-.262-.087 0-.174-.087-.348-.087l-138.322-40.031c-14.827-4.274-30.264 4.273-34.537 19.1-4.274 14.826 4.273 30.263 19.1 34.537l65.236 18.838a449.2 449.2 0 0 0-109.018 48.23c-38.374 23.547-72.998 52.59-102.826 86.342-30.001 33.926-54.596 72.039-73.173 113.204-13.605 30.176-23.896 61.922-30.525 94.366-3.052 15.088 6.629 29.827 21.717 32.967 1.918.349 3.75.61 5.581.61 12.995 0 24.595-9.07 27.299-22.327a398.8 398.8 0 0 1 26.687-82.592c16.222-36.02 37.851-69.422 64.103-99.25a394.8 394.8 0 0 1 90.18-75.702c34.798-21.28 72.387-36.978 111.895-46.66a146 146 0 0 1 5.931-1.395l-18.577 70.993c-3.924 14.913 5.059 30.176 19.885 34.1 2.355.611 4.71.96 7.065.96 12.384 0 23.722-8.285 26.949-20.844l34.624-131.258c0-.087.087-.261.087-.349.087-.261.087-.523.175-.785"/></svg>