<svg xmlns="http://www.w3.org/2000/svg" width="1em" height="1em" fill="currentColor" viewBox="0 0 1024 1024"><path d="M255.152 180.032a48 48 0 0 1 24.672 63.168A669.6 669.6 0 0 0 224 512c0 95.664 19.968 186.528 55.872 268.8a48 48 0 0 1-87.936 38.4A765.6 765.6 0 0 1 128 512c0-109.152 22.8-213.12 63.936-307.2a48 48 0 0 1 63.216-24.768M654.128 368a144 144 0 0 0-112.416 54.048l-15.744 19.68-5.328-13.392A96 96 0 0 0 431.504 368H416a48 48 0 0 0 0 96h15.504l25.536 63.84L407.36 590a48 48 0 0 1-37.488 18H368a48 48 0 1 0 0 96h1.872a144 144 0 0 0 112.416-54.048l15.744-19.68 5.328 13.392A96 96 0 0 0 592.496 704H608a48 48 0 1 0 0-96h-15.504l-25.536-63.84L616.64 482a48 48 0 0 1 37.488-18H656a48 48 0 1 0 0-96zm89.952-124.8a48 48 0 0 1 87.984-38.4A765.6 765.6 0 0 1 896 512c0 109.152-22.8 213.12-63.936 307.2a48 48 0 1 1-87.936-38.4A669.55 669.55 0 0 0 800 512c0-95.664-19.968-186.528-55.92-268.8"/></svg>