<svg xmlns="http://www.w3.org/2000/svg" width="1em" height="1em" fill="currentColor" viewBox="0 0 1024 1024"><path d="M512 260.884c-167.41 0-310.38 104.13-368.304 251.116C201.621 658.987 344.59 763.116 512 763.116c167.578 0 310.38-104.13 368.304-251.116C822.379 365.013 679.578 260.884 512 260.884m0 418.527c-92.41 0-167.41-75-167.41-167.411s75-167.41 167.41-167.41 167.41 75 167.41 167.41-75 167.41-167.41 167.41m0-267.857c-55.413 0-100.446 45.033-100.446 100.446S456.587 612.446 512 612.446 612.446 567.413 612.446 512 567.413 411.554 512 411.554"/></svg>