<svg xmlns="http://www.w3.org/2000/svg" width="1em" height="1em" fill="currentColor" viewBox="0 0 1024 1024"><path d="M512 344.59c92.41 0 167.41 75 167.41 167.41 0 21.596-4.352 42.188-11.885 61.105l97.935 97.935c50.558-42.187 90.402-96.763 115.011-159.04C822.379 365.013 679.578 260.884 512 260.884c-46.875 0-91.741 8.37-133.426 23.437l72.321 72.154c18.917-7.366 39.509-11.886 61.105-11.886m-334.821-91.24 91.573 91.574C213.507 388.116 169.812 445.538 143.696 512 201.621 658.987 344.59 763.116 512 763.116c51.897 0 101.45-10.045 146.82-28.292l14.23 14.23 97.6 97.767 42.69-42.522-593.472-593.638zm185.156 184.99 51.73 51.73c-1.507 7.198-2.511 14.397-2.511 21.93 0 55.413 45.033 100.446 100.446 100.446 7.533 0 14.732-1.004 21.763-2.51l51.73 51.73C563.228 672.713 538.451 679.41 512 679.41c-92.41 0-167.41-75-167.41-167.411 0-26.45 6.696-51.228 17.745-73.66m144.14-26.284 105.47 105.469.501-5.525c0-55.413-45.033-100.446-100.446-100.446z"/></svg>